<svg width="20" height="20" viewBox="0 0 20 20" fill="none" xmlns="http://www.w3.org/2000/svg">
<path fill-rule="evenodd" clip-rule="evenodd" d="M9.6275 2.55336C9.73831 2.6023 9.83251 2.68238 9.89864 2.78387C9.96477 2.88537 9.99998 3.00389 10 3.12502V16.875C10.0001 16.9962 9.96493 17.1148 9.89885 17.2163C9.83277 17.3179 9.73859 17.398 9.62778 17.447C9.51696 17.496 9.3943 17.5118 9.2747 17.4923C9.15511 17.4729 9.04374 17.4191 8.95416 17.3375L4.55 13.3334H2.29166C1.90489 13.3334 1.53395 13.1797 1.26046 12.9062C0.986974 12.6327 0.833328 12.2618 0.833328 11.875V8.12503C0.833328 7.32003 1.48666 6.66669 2.29166 6.66669H4.55L8.95416 2.66252C9.04384 2.58119 9.15522 2.52766 9.27475 2.50842C9.39428 2.48919 9.51683 2.50509 9.6275 2.55419V2.55336ZM8.75 4.53752L5.2125 7.75419C5.09734 7.85886 4.94728 7.9168 4.79166 7.91669H2.29166C2.23641 7.91669 2.18342 7.93864 2.14435 7.97771C2.10528 8.01678 2.08333 8.06977 2.08333 8.12503V11.875C2.08333 11.99 2.17666 12.0834 2.29166 12.0834H4.79166C4.94728 12.0832 5.09734 12.1412 5.2125 12.2459L8.75 15.4625V4.53752Z" fill="white"/>
<path d="M15.5983 3.51835C15.7155 3.40131 15.8744 3.33557 16.04 3.33557C16.2056 3.33557 16.3645 3.40131 16.4817 3.51835C20.0617 7.09835 20.0617 12.9017 16.4817 16.4817C16.3632 16.5921 16.2065 16.6522 16.0446 16.6493C15.8826 16.6465 15.7282 16.5809 15.6136 16.4664C15.4991 16.3519 15.4335 16.1974 15.4307 16.0355C15.4278 15.8735 15.4879 15.7168 15.5983 15.5984C16.3336 14.8632 16.9168 13.9904 17.3147 13.0299C17.7127 12.0693 17.9175 11.0397 17.9175 10C17.9175 8.96029 17.7127 7.93075 17.3147 6.97018C16.9168 6.00961 16.3336 5.13683 15.5983 4.40169C15.4813 4.2845 15.4155 4.12565 15.4155 3.96002C15.4155 3.7944 15.4813 3.63554 15.5983 3.51835Z" fill="white"/>
<path d="M13.5358 6.46424C13.4778 6.40619 13.4088 6.36014 13.333 6.32872C13.2571 6.2973 13.1758 6.28113 13.0937 6.28113C13.0116 6.28113 12.9303 6.2973 12.8545 6.32872C12.7786 6.36014 12.7097 6.40619 12.6517 6.46424C12.5936 6.5223 12.5475 6.59122 12.5161 6.66707C12.4847 6.74293 12.4685 6.82423 12.4685 6.90633C12.4685 6.98843 12.4847 7.06973 12.5161 7.14558C12.5475 7.22144 12.5936 7.29036 12.6517 7.34841C12.9999 7.69663 13.2761 8.11003 13.4646 8.56501C13.653 9.01998 13.75 9.50762 13.75 10.0001C13.75 10.4925 13.653 10.9802 13.4646 11.4352C13.2761 11.8901 12.9999 12.3035 12.6517 12.6517C12.5413 12.7702 12.4812 12.9269 12.484 13.0888C12.4869 13.2508 12.5525 13.4053 12.667 13.5198C12.7815 13.6343 12.936 13.6999 13.0979 13.7027C13.2598 13.7056 13.4165 13.6455 13.535 13.5351C14.4726 12.5974 14.9993 11.3257 14.9993 9.99966C14.9993 8.67364 14.4734 7.40192 13.5358 6.46424Z" fill="white"/>
<path d="M15 1L4 18" stroke="white" stroke-width="1.1" stroke-linecap="round"/>
</svg>
